<svg width="620" height="300" viewBox="0 0 620 300" fill="none" xmlns="http://www.w3.org/2000/svg">
  <defs>
    <linearGradient id="wideBg" x1="22" y1="20" x2="592" y2="280" gradientUnits="userSpaceOnUse">
      <stop stop-color="#132B43"/>
      <stop offset="1" stop-color="#0A1320"/>
    </linearGradient>
    <linearGradient id="accent" x1="356" y1="112" x2="556" y2="224" gradientUnits="userSpaceOnUse">
      <stop stop-color="#2ED9CC"/>
      <stop offset="1" stop-color="#74F0E2"/>
    </linearGradient>
  </defs>

  <rect x="6" y="6" width="608" height="288" rx="54" fill="url(#wideBg)"/>
  <path d="M28 86H592" stroke="#8FD9D3" stroke-opacity="0.08" stroke-width="2"/>
  <path d="M28 214H592" stroke="#8FD9D3" stroke-opacity="0.08" stroke-width="2"/>
  <path d="M232 34V266" stroke="#8FD9D3" stroke-opacity="0.08" stroke-width="2"/>

  <g transform="translate(54 32) scale(0.23)">
    <rect x="80" y="80" width="864" height="864" rx="232" fill="#10243A"/>
    <circle cx="760" cy="260" r="118" fill="#2ED9CC" fill-opacity="0.12"/>
    <circle cx="290" cy="772" r="154" fill="#7CEBDD" fill-opacity="0.08"/>
    <path d="M512 198L718 278V514C718 654 633 764 512 826C391 764 306 654 306 514V278L512 198Z" fill="#E9F4FB" fill-opacity="0.12" stroke="#D9E7F3" stroke-width="30"/>
    <path d="M376 706L512 334L648 706" stroke="#F6FBFF" stroke-width="78" stroke-linecap="round" stroke-linejoin="round"/>
    <path d="M430 560H594" stroke="#2ED9CC" stroke-width="70" stroke-linecap="round"/>
  </g>

  <rect x="300" y="88" width="208" height="22" rx="11" fill="url(#accent)"/>
  <rect x="300" y="138" width="244" height="18" rx="9" fill="#E9F4FB" fill-opacity="0.78"/>
  <rect x="300" y="176" width="196" height="18" rx="9" fill="#E9F4FB" fill-opacity="0.46"/>
  <rect x="300" y="214" width="156" height="18" rx="9" fill="#E9F4FB" fill-opacity="0.24"/>
</svg>
